<?xml version="1.0" encoding="UTF-8"?>
<svg version="1.1" xmlns="http://www.w3.org/2000/svg" width="334" height="308">
<path d="M0 0 C110.22 0 220.44 0 334 0 C334 101.64 334 203.28 334 308 C223.78 308 113.56 308 0 308 C0 206.36 0 104.72 0 0 Z " fill="#0A0B0D" transform="translate(0,0)"/>
<path d="M0 0 C55.44 0 110.88 0 168 0 C164.05976198 4.59694436 160.54568642 8.51317405 156.125 12.5 C155.60107666 12.97429443 155.07715332 13.44858887 154.53735352 13.93725586 C151.07792382 17.06058109 147.58010372 20.13845478 144.05859375 23.19140625 C141.5104335 25.4301125 139.00589407 27.71410212 136.5 30 C132.7079479 33.45822633 128.88309601 36.86947629 125.01171875 40.23828125 C118.35066584 46.07155283 111.83326785 52.06451234 105.31689453 58.05810547 C102.6177239 60.53530769 99.8981828 62.98105587 97.125 65.375 C93.33197434 68.66017285 89.66868396 72.07762684 86 75.5 C81.69787017 79.51268299 77.37572685 83.4833469 72.921875 87.328125 C70.58894926 89.35758073 68.29488755 91.427647 66 93.5 C63.04130249 96.17048344 60.07073528 98.82298058 57.0625 101.4375 C52.86419058 105.0929977 48.76068087 108.84984457 44.6484375 112.6015625 C42.49428693 114.55237143 40.32281531 116.47393612 38.125 118.375 C33.92260575 122.02399254 29.85568167 125.81508274 25.77563477 129.59936523 C22.90661763 132.25564714 20.02383601 134.88374572 17.0625 137.4375 C13.28784075 140.69925438 9.64732636 144.09761125 6 147.5 C0.09114721 153.00627501 -5.89877328 158.37799273 -12.06640625 163.59375 C-19.15238143 169.60278627 -26.0453752 175.76557306 -32.81030273 182.13452148 C-36.45031336 185.56066657 -40.13308231 188.91021868 -43.921875 192.171875 C-46.78514393 194.69069053 -49.57782982 197.28321504 -52.375 199.875 C-60.47284742 207.37620073 -68.66668389 214.7607226 -77 222 C-77 218.48453428 -76.60193564 218.22022203 -74.25390625 215.8125 C-73.66875244 215.20220947 -73.08359863 214.59191895 -72.48071289 213.96313477 C-71.53119751 212.99138306 -71.53119751 212.99138306 -70.5625 212 C-66.38999379 207.63994201 -62.31147765 203.29918907 -58.5625 198.5625 C-54.77093709 193.80710053 -50.68450345 189.40636225 -46.5 185 C-41.50534261 179.74000912 -36.76856647 174.39535092 -32.24609375 168.71875 C-28.60534525 164.31186138 -24.67956735 160.17433515 -20.78125 155.99609375 C-18.04183829 153.05800144 -15.39134401 150.05168955 -12.765625 147.01171875 C-10.5908943 144.53387293 -8.35661598 142.11421125 -6.125 139.6875 C-2.85470527 136.10738788 0.28026617 132.47083763 3.3125 128.6875 C7.94653434 122.94228514 12.95317154 117.59392484 18 112.21484375 C20.80838799 109.21882639 23.52309884 106.15418724 26.203125 103.04296875 C28.08123458 100.90763981 30.00721566 98.82028905 31.94067383 96.73510742 C35.91600449 92.44581022 39.77280446 88.12507921 43.4375 83.5625 C47.79741306 78.14587552 52.47475879 73.08061704 57.21484375 68 C59.97346339 65.04123978 62.64611326 62.01604915 65.29296875 58.95703125 C67.33633431 56.6144085 69.41680859 54.30726578 71.5 52 C76.44415263 46.51862196 81.30964207 40.97522707 86.11254883 35.36987305 C86.65317459 34.73897263 87.19380035 34.1080722 87.75080872 33.45805359 C88.16304184 32.9768959 88.57527496 32.49573822 89 32 C78.92491972 31.72058692 68.85077686 31.50806227 58.77259541 31.37825394 C54.09137894 31.3159133 49.41283345 31.23153646 44.7331543 31.09472656 C40.20710198 30.96325301 35.6835986 30.89237339 31.1557827 30.86147308 C29.43843667 30.83948837 27.72121299 30.79655422 26.00496864 30.73123932 C17.62906254 30.42548354 10.97933555 30.37953584 4.41118908 36.08234787 C2.3218201 38.11087148 0.36090494 40.21938307 -1.55643654 42.41043854 C-4.0261096 45.12988747 -6.77230578 47.544526 -9.5 50 C-10.58064302 50.99477447 -11.66021503 51.99071481 -12.73828125 52.98828125 C-13.27404785 53.48279785 -13.80981445 53.97731445 -14.36181641 54.48681641 C-16.02737248 56.02528385 -17.69156693 57.56521247 -19.35546875 59.10546875 C-28.11489512 67.21055805 -36.8956676 75.28110948 -46 83 C-44.37172858 76.7896058 -41.01479365 71.64513791 -37.75 66.1875 C-32.63658487 57.53949982 -27.63144084 48.84356786 -22.75 40.0625 C-18.38928207 32.22687275 -13.97796263 24.43187495 -9.37011719 16.73852539 C-6.08259591 11.23008448 -3.08201168 5.65035474 0 0 Z " fill="#FAFAFA" transform="translate(95,45)"/>
<path d="M0 0 C0 3 0 3 -1.94140625 5.19921875 C-3.23884766 6.43091797 -3.23884766 6.43091797 -4.5625 7.6875 C-8.29942792 11.31420954 -11.83628444 14.98540489 -15.22265625 18.9375 C-17.2797624 21.32464736 -19.38684772 23.66234756 -21.5 26 C-24.76704335 29.62023723 -27.99520776 33.26983565 -31.1953125 36.94921875 C-33.22958141 39.26088797 -35.3022231 41.5353143 -37.375 43.8125 C-40.57652433 47.35160002 -43.63146063 50.97103106 -46.625 54.6875 C-49.12973231 57.78591453 -51.6339111 60.73296947 -54.5 63.5 C-57.30525702 66.20896674 -59.74629532 69.08335539 -62.1875 72.125 C-66.63350842 77.65021047 -71.38462784 82.82233398 -76.21875 88.00390625 C-78.95816171 90.94199856 -81.60865599 93.94831045 -84.234375 96.98828125 C-86.4091057 99.46612707 -88.64338402 101.88578875 -90.875 104.3125 C-94.1072998 107.85009948 -97.20056326 111.44117256 -100.1875 115.1875 C-104.67584499 120.76006332 -109.56153556 125.90553007 -114.48657227 131.09204102 C-118.78506421 135.64112981 -122.79701505 140.32794722 -126.6953125 145.2265625 C-130.02965 149.23907034 -133.61549831 153.00052006 -137.19262695 156.79589844 C-141.33560231 161.21685643 -145.17074798 165.82355758 -148.95703125 170.5546875 C-151.4088329 173.48934875 -154.07686012 176.11028309 -156.82739258 178.76123047 C-159.29895281 181.30805678 -161.51724162 183.99188671 -163.75 186.75 C-164.54921875 187.73484375 -165.3484375 188.7196875 -166.171875 189.734375 C-166.77515625 190.48203125 -167.3784375 191.2296875 -168 192 C-157.95972741 192.32636423 -147.92074281 192.57410842 -137.87621975 192.72537041 C-133.21023394 192.79802578 -128.54791068 192.89630088 -123.8840332 193.05615234 C-101.30694373 195.00930839 -101.30694373 195.00930839 -81.17860413 187.2069397 C-78.94462847 184.86621663 -77.03749138 182.45461814 -75.2538147 179.75726318 C-73.16119065 176.82438067 -70.52700228 174.66994949 -67.8125 172.3125 C-66.84570312 171.42820313 -65.87890625 170.54390625 -64.8828125 169.6328125 C-62.9609375 167.87760417 -61.0390625 166.12239583 -59.1171875 164.3671875 C-54.71748274 160.34292422 -50.32616478 156.31297619 -45.98046875 152.23046875 C-45.29895752 151.59085205 -44.61744629 150.95123535 -43.9152832 150.29223633 C-42.57462463 149.03243116 -41.23585907 147.77060786 -39.89916992 146.5065918 C-39.29049072 145.93465088 -38.68181152 145.36270996 -38.0546875 144.7734375 C-37.51312012 144.26216309 -36.97155273 143.75088867 -36.41357422 143.22412109 C-35 142 -35 142 -33 141 C-34.65413464 145.53127309 -36.89711906 149.61855854 -39.25 153.8125 C-39.68401123 154.59020752 -40.11802246 155.36791504 -40.56518555 156.16918945 C-44.81625539 163.74666769 -49.20536467 171.24262963 -53.60107422 178.73681641 C-58.28808733 186.73993258 -62.87157932 194.79745419 -67.38598633 202.89916992 C-68.34744214 204.61527425 -69.32709243 206.32135757 -70.32772064 208.01492023 C-72.06435994 211.00840847 -72.06435994 211.00840847 -73.48183441 214.32477856 C-77.90951875 223.27787043 -77.90951875 223.27787043 -83.40965271 225.17782021 C-87.76920763 225.60540912 -91.95956856 225.61157835 -96.33007812 225.47583008 C-97.98640655 225.4721593 -99.6427561 225.47422896 -101.29907227 225.48158264 C-105.77966438 225.48530267 -110.25570287 225.40906696 -114.73523903 225.31812119 C-119.42217321 225.2366702 -124.10922022 225.22920386 -128.79675293 225.21379089 C-137.6656484 225.17343669 -146.5324525 225.06683496 -155.4004283 224.93624753 C-165.49927891 224.79077351 -175.5982312 224.71942343 -185.6978693 224.65420687 C-206.46641207 224.51844171 -227.23307414 224.28988958 -248 224 C-242.5187173 218.50784361 -242.5187173 218.50784361 -239.73046875 215.9140625 C-238.86881104 215.11234619 -238.86881104 215.11234619 -237.98974609 214.29443359 C-237.39500488 213.74352051 -236.80026367 213.19260742 -236.1875 212.625 C-235.56439941 212.0470166 -234.94129883 211.4690332 -234.29931641 210.87353516 C-230.60294455 207.45460794 -226.86738466 204.09375243 -223.0546875 200.8046875 C-220.33075297 198.41218226 -217.66656731 195.95594058 -215 193.5 C-211.09023232 189.8998211 -207.14133397 186.35582277 -203.125 182.875 C-199.84491419 179.98080664 -196.63731943 177.00781108 -193.41967773 174.04467773 C-190.66526572 171.51259884 -187.89257501 169.00964732 -185.0625 166.5625 C-181.47041211 163.45035705 -177.98451718 160.23124165 -174.5 157 C-170.36856846 153.16954924 -166.20890349 149.38737346 -161.94921875 145.69921875 C-157.91904339 142.18593962 -153.96853388 138.58253666 -150 135 C-147.50312008 132.75203023 -145.00546849 130.50491993 -142.5078125 128.2578125 C-140.81407106 126.73291756 -139.12138831 125.20684598 -137.4296875 123.6796875 C-133.70607717 120.32046718 -129.97886481 116.97017016 -126.1875 113.6875 C-121.96856509 110.01625644 -117.88059888 106.20756274 -113.78027344 102.40527344 C-110.26553598 99.15164242 -106.70408789 95.96606341 -103.08203125 92.83203125 C-100.39483502 90.46750023 -97.75948451 88.04783285 -95.125 85.625 C-87.8421717 78.92800172 -80.50407648 72.29955469 -73.046875 65.796875 C-66.91075023 60.41020058 -60.88502294 54.9014253 -54.875 49.375 C-50.98321704 45.7967643 -47.05319219 42.27168637 -43.05859375 38.80859375 C-39.5441942 35.72099035 -36.10424823 32.55127304 -32.6484375 29.3984375 C-30.49428693 27.44762857 -28.32281531 25.52606388 -26.125 23.625 C-21.95874063 20.00625726 -17.92294849 16.25099981 -13.87670898 12.49951172 C-9.30758835 8.26857164 -4.67827157 4.11010939 0 0 Z " fill="#FAFAFA" transform="translate(319,19)"/>
<path d="M0 0 C2 1.375 2 1.375 4 3 C4 3.66 4 4.32 4 5 C4.99 5.33 5.98 5.66 7 6 C-4.53574788 16.6321143 -4.53574788 16.6321143 -8.9375 20.4375 C-12.48402019 23.51213393 -15.93194704 26.6857396 -19.375 29.875 C-27.47297922 37.37606512 -35.666678 44.76071748 -44 52 C-44 48.48453428 -43.60193564 48.22022203 -41.25390625 45.8125 C-40.66875244 45.20220947 -40.08359863 44.59191895 -39.48071289 43.96313477 C-38.84770264 43.31530029 -38.21469238 42.66746582 -37.5625 42 C-33.38999379 37.63994201 -29.31147765 33.29918907 -25.5625 28.5625 C-21.13355865 23.00967316 -16.29723605 17.88429715 -11.40258789 12.74438477 C-7.46343009 8.60164755 -3.68553959 4.37056308 0 0 Z " fill="#F1F1F2" transform="translate(62,215)"/>
<path d="M0 0 C0 3 0 3 -1.94140625 5.19921875 C-2.80636719 6.02035156 -3.67132813 6.84148438 -4.5625 7.6875 C-8.29809464 11.31291559 -11.83422532 14.98232083 -15.21875 18.93359375 C-17.29664044 21.34412893 -19.42705542 23.70283374 -21.5625 26.0625 C-25.10696445 29.98932963 -28.57917903 33.96518552 -32 38 C-32.99 36.68 -33.98 35.36 -35 34 C-33.40225465 29.79593256 -30.27032414 27.23174865 -27 24.3125 C-26.41694092 23.78358154 -25.83388184 23.25466309 -25.2331543 22.7097168 C-23.49379584 21.13412988 -21.74753361 19.5665081 -20 18 C-19.09894531 17.1853125 -18.19789063 16.370625 -17.26953125 15.53125 C-14.85181515 13.3480024 -12.42657096 11.17339743 -10 9 C-8.12461524 7.31292761 -6.24960775 5.62543573 -4.375 3.9375 C-2.91666667 2.625 -1.45833333 1.3125 0 0 Z M-33 34 C-32.67 34.66 -32.34 35.32 -32 36 C-31.67 35.34 -31.34 34.68 -31 34 C-31.66 34 -32.32 34 -33 34 Z " fill="#EFEFF0" transform="translate(319,19)"/>
<path d="M0 0 C0.66 0.66 1.32 1.32 2 2 C-2.5190187 6.6271867 -7.13024309 11.04250099 -12.03515625 15.2578125 C-15.16363209 18.03176921 -18.08580113 21.00383929 -21 24 C-21.33 23.34 -21.66 22.68 -22 22 C-21.01196289 19.84521484 -21.01196289 19.84521484 -19.47265625 17.2109375 C-18.65571289 15.79941406 -18.65571289 15.79941406 -17.82226562 14.359375 C-17.24154297 13.37453125 -16.66082031 12.3896875 -16.0625 11.375 C-15.48564453 10.38242188 -14.90878906 9.38984375 -14.31445312 8.3671875 C-12.88340126 5.90719752 -11.44500804 3.45180958 -10 1 C-9.34 1 -8.68 1 -8 1 C-7.34 1.66 -6.68 2.32 -6 3 C-5.38125 2.649375 -4.7625 2.29875 -4.125 1.9375 C-3.42375 1.628125 -2.7225 1.31875 -2 1 C-1.34 1.33 -0.68 1.66 0 2 C0 1.34 0 0.68 0 0 Z " fill="#F4F5F6" transform="translate(71,104)"/>
<path d="M0 0 C0.66 0.33 1.32 0.66 2 1 C4.09821215 0.60061233 4.09821215 0.60061233 6 0 C5.47778844 4.01562681 3.63785737 5.5493396 0.625 8.125 C-0.72851562 9.300625 -0.72851562 9.300625 -2.109375 10.5 C-3.54023437 11.7375 -3.54023437 11.7375 -5 13 C-6.87970344 14.70315671 -8.75474647 16.41147162 -10.625 18.125 C-15.03519241 22.13996891 -19.49011091 26.09745987 -24 30 C-24 26.48453428 -23.60193564 26.22022203 -21.25390625 23.8125 C-20.66762451 23.20100098 -20.08134277 22.58950195 -19.47729492 21.95947266 C-18.8454126 21.31284668 -18.21353027 20.6662207 -17.5625 20 C-11.71048963 13.88742187 -6.27342304 7.62122099 -1 1 C-0.67 0.67 -0.34 0.34 0 0 Z " fill="#E8E9EB" transform="translate(42,237)"/>
<path d="M0 0 C0.66 0.99 1.32 1.98 2 3 C0.68 3.33 -0.64 3.66 -2 4 C-1.67 6.97 -1.34 9.94 -1 13 C-5 14 -5 14 -8 14 C-8.33 14.66 -8.66 15.32 -9 16 C-11.9737344 17.09036928 -12.88407501 17.03864166 -16 16 C-15.67 15.01 -15.34 14.02 -15 13 C-14.15695313 12.58621094 -14.15695313 12.58621094 -13.296875 12.1640625 C-10.03727995 10.51209086 -7.76075354 7.9714223 -5.25 5.375 C-4.74339844 4.859375 -4.23679687 4.34375 -3.71484375 3.8125 C-2.47196098 2.54616661 -1.23534724 1.2736856 0 0 Z " fill="#101113" transform="translate(63,114)"/>
<path d="M0 0 C1.47894066 2.95788132 0.56655499 5.05709792 -0.26953125 8.16015625 C-1 10 -1 10 -2.875 11.4375 C-3.926875 11.7159375 -3.926875 11.7159375 -5 12 C-5.7425 12.20625 -6.485 12.4125 -7.25 12.625 C-7.8275 12.74875 -8.405 12.8725 -9 13 C-9 13.66 -9 14.32 -9 15 C-8.34 15.33 -7.68 15.66 -7 16 C-7.99 16.33 -8.98 16.66 -10 17 C-12 14 -12 14 -12 11 C-10.04530327 8.99003655 -8.10532329 7.14991616 -6 5.3125 C-5.42765625 4.80138672 -4.8553125 4.29027344 -4.265625 3.76367188 C-2.85032787 2.5016986 -1.42599731 1.24986967 0 0 Z M-12 17 C-11.01 17.495 -11.01 17.495 -10 18 C-10.99 18.495 -10.99 18.495 -12 19 C-12 18.34 -12 17.68 -12 17 Z " fill="#0F0F10" transform="translate(62,226)"/>
<path d="M0 0 C0.66 0 1.32 0 2 0 C1.50128936 4.45673159 -0.02004362 6.57687178 -3.0625 9.8125 C-4.16271484 10.99779297 -4.16271484 10.99779297 -5.28515625 12.20703125 C-6.13400391 13.09455078 -6.13400391 13.09455078 -7 14 C-7.66 12.68 -8.32 11.36 -9 10 C-9.66 10 -10.32 10 -11 10 C-11 9.34 -11 8.68 -11 8 C-9.68 7.67 -8.36 7.34 -7 7 C-7 6.34 -7 5.68 -7 5 C-6.030625 4.54625 -5.06125 4.0925 -4.0625 3.625 C-0.92920418 2.34213779 -0.92920418 2.34213779 0 0 Z " fill="#131314" transform="translate(76,194)"/>
<path d="M0 0 C0.66 0.66 1.32 1.32 2 2 C0.90536178 3.17561146 -0.20107186 4.3402489 -1.3125 5.5 C-1.92738281 6.1496875 -2.54226562 6.799375 -3.17578125 7.46875 C-5.73646263 9.61818705 -7.73377324 9 -11 9 C-11.66 8.67 -12.32 8.34 -13 8 C-11.125 3.25 -11.125 3.25 -10 1 C-9.34 1 -8.68 1 -8 1 C-7.34 1.66 -6.68 2.32 -6 3 C-5.38125 2.649375 -4.7625 2.29875 -4.125 1.9375 C-3.42375 1.628125 -2.7225 1.31875 -2 1 C-1.34 1.33 -0.68 1.66 0 2 C0 1.34 0 0.68 0 0 Z " fill="#EEEFF1" transform="translate(71,104)"/>
<path d="M0 0 C0.66 0.99 1.32 1.98 2 3 C-0.31 7.29 -2.62 11.58 -5 16 C-8 16 -8 16 -10 15 C-9.34 13.68 -8.68 12.36 -8 11 C-7.67 11.33 -7.34 11.66 -7 12 C-5.66666667 9 -5.66666667 9 -7 6 C-6.360625 5.731875 -5.72125 5.46375 -5.0625 5.1875 C-2.66868314 4.11332248 -2.66868314 4.11332248 -2 1 C-1.34 0.67 -0.68 0.34 0 0 Z " fill="#111212" transform="translate(89,51)"/>
<path d="M0 0 C1.65 0.99 3.3 1.98 5 3 C4.06725891 4.12894876 3.12859878 5.25300876 2.1875 6.375 C1.66542969 7.00148437 1.14335937 7.62796875 0.60546875 8.2734375 C-1 10 -1 10 -4 12 C-5.32 12 -6.64 12 -8 12 C-8 10.68 -8 9.36 -8 8 C-8.66 7.67 -9.32 7.34 -10 7 C-6.90582767 6.3485953 -4.15153624 6 -1 6 C-1.33 4.68 -1.66 3.36 -2 2 C-1.34 2 -0.68 2 0 2 C0 1.34 0 0.68 0 0 Z " fill="#151515" transform="translate(239,195)"/>
<path d="M0 0 C0.66 0.66 1.32 1.32 2 2 C1.74329274 5.87545156 -0.51059333 7.99556105 -3.0625 10.75 C-4.16271484 11.94882813 -4.16271484 11.94882813 -5.28515625 13.171875 C-5.85105469 13.77515625 -6.41695312 14.3784375 -7 15 C-7.66 14.67 -8.32 14.34 -9 14 C-8.67 13.38125 -8.34 12.7625 -8 12.125 C-6.57523193 9.09736784 -6.92163482 8.23509555 -8 5 C-7.01 4.67 -6.02 4.34 -5 4 C-4.34 4.33 -3.68 4.66 -3 5 C-3 4.01 -3 3.02 -3 2 C-2.01 1.34 -1.02 0.68 0 0 Z " fill="#121214" transform="translate(154,105)"/>
<path d="M0 0 C1.24211322 3.58832708 0.93335834 6.3443465 0 10 C-1.5625 11.875 -1.5625 11.875 -3 13 C-3.33 12.01 -3.66 11.02 -4 10 C-5.98 10 -7.96 10 -10 10 C-7.02911382 6.00073014 -3.87051275 3.07881696 0 0 Z " fill="#141416" transform="translate(221,83)"/>
<path d="M0 0 C0.66 0 1.32 0 2 0 C2 0.66 2 1.32 2 2 C3.65 1.67 5.3 1.34 7 1 C5.57904457 4.3326532 3.8834126 6.23606522 1.125 8.5625 C0.44695312 9.14128906 -0.23109375 9.72007813 -0.9296875 10.31640625 C-2.91651825 11.93211201 -4.93937141 13.4799399 -7 15 C-7.66 14.34 -8.32 13.68 -9 13 C-8.34 13 -7.68 13 -7 13 C-6.9175 12.38125 -6.835 11.7625 -6.75 11.125 C-6 9 -6 9 -4.0625 7.9375 C-3.381875 7.628125 -2.70125 7.31875 -2 7 C0.36980013 4.04622502 0.36980013 4.04622502 0 0 Z " fill="#181919" transform="translate(257,67)"/>
<path d="M0 0 C0.99 0.33 1.98 0.66 3 1 C-0.31457218 5.69564393 -4.36279281 8.72469104 -9 12 C-9 10.68 -9 9.36 -9 8 C-9.99 7.67 -10.98 7.34 -12 7 C-8.535 6.505 -8.535 6.505 -5 6 C-4.67 5.01 -4.34 4.02 -4 3 C-2.125 1.25 -2.125 1.25 0 0 Z " fill="#101112" transform="translate(103,210)"/>
<path d="M0 0 C1.5 1.3125 1.5 1.3125 3 3 C3 3.99 3 4.98 3 6 C-2.75 9 -2.75 9 -5 9 C-5.66 10.32 -6.32 11.64 -7 13 C-7 12.34 -7 11.68 -7 11 C-7.66 10.67 -8.32 10.34 -9 10 C-8.27683594 9.29423828 -8.27683594 9.29423828 -7.5390625 8.57421875 C-6.90742188 7.95160156 -6.27578125 7.32898438 -5.625 6.6875 C-4.68527344 5.76517578 -4.68527344 5.76517578 -3.7265625 4.82421875 C-1.81913393 2.91187472 -1.81913393 2.91187472 0 0 Z " fill="#17181A" transform="translate(231,119)"/>
<path d="M0 0 C3.81176471 5.08235294 3.81176471 5.08235294 4 8 C2.5625 9.75 2.5625 9.75 1 11 C0.01 10.67 -0.98 10.34 -2 10 C-2.99 10 -3.98 10 -5 10 C-3.35 6.7 -1.7 3.4 0 0 Z " fill="#161718" transform="translate(274,181)"/>
<path d="M0 0 C0.66 0.33 1.32 0.66 2 1 C1.01 1.33 0.02 1.66 -1 2 C-0.67 2.99 -0.34 3.98 0 5 C-2.31 7.31 -4.62 9.62 -7 12 C-9 8 -9 8 -8.625 5.75 C-8.41875 5.1725 -8.2125 4.595 -8 4 C-6.02 3.67 -4.04 3.34 -2 3 C-2 2.34 -2 1.68 -2 1 C-1.34 0.67 -0.68 0.34 0 0 Z " fill="#1B1C1B" transform="translate(268,172)"/>
<path d="M0 0 C0 3 0 3 -2.01171875 5.3046875 C-2.89472656 6.15289063 -3.77773438 7.00109375 -4.6875 7.875 C-5.55761719 8.71804687 -6.42773438 9.56109375 -7.32421875 10.4296875 C-8.64873047 11.70199219 -8.64873047 11.70199219 -10 13 C-11.6701185 14.66320767 -13.33783173 16.32884704 -15 18 C-14.88954297 14.08982128 -13.54791686 12.27715787 -10.83984375 9.66796875 C-9.54924174 8.49649923 -8.2480383 7.33662303 -6.9375 6.1875 C-6.27427734 5.59001953 -5.61105469 4.99253906 -4.92773438 4.37695312 C-3.29388697 2.90766589 -1.651454 1.44942962 0 0 Z " fill="#E1E2E4" transform="translate(319,19)"/>
<path d="M0 0 C1.67542976 0.28604898 3.34385343 0.61781233 5 1 C5.36458333 5.49652778 5.36458333 5.49652778 3.6875 7.8125 C2 9 2 9 -1 9 C-1.09765625 2.84765625 -1.09765625 2.84765625 -1 1 C-0.67 0.67 -0.34 0.34 0 0 Z " fill="#161617" transform="translate(160,153)"/>
<path d="M0 0 C1 3 1 3 0 6 C-0.66 6 -1.32 6 -2 6 C-2 6.66 -2 7.32 -2 8 C-2.99 8.66 -3.98 9.32 -5 10 C-5.72965366 12.56282742 -5.72965366 12.56282742 -6 15 C-8 14 -8 14 -8.90234375 12.265625 C-9 10 -9 10 -7.12890625 7.421875 C-6.28199219 6.54015625 -5.43507812 5.6584375 -4.5625 4.75 C-3.29599609 3.41195312 -3.29599609 3.41195312 -2.00390625 2.046875 C-1.34261719 1.37140625 -0.68132812 0.6959375 0 0 Z " fill="#18191B" transform="translate(217,135)"/>
<path d="M0 0 C0.33 1.32 0.66 2.64 1 4 C-0.21484375 5.921875 -0.21484375 5.921875 -1.9375 7.75 C-2.50339844 8.36359375 -3.06929688 8.9771875 -3.65234375 9.609375 C-4.31943359 10.29773438 -4.31943359 10.29773438 -5 11 C-5.99 9.68 -6.98 8.36 -8 7 C-5.36 4.69 -2.72 2.38 0 0 Z " fill="#E9EAEB" transform="translate(303,34)"/>
<path d="M0 0 C0.66 0.99 1.32 1.98 2 3 C0.68 3.33 -0.64 3.66 -2 4 C-1.67 6.97 -1.34 9.94 -1 13 C-1.99 13.495 -1.99 13.495 -3 14 C-3.66 13.34 -4.32 12.68 -5 12 C-4.67 11.01 -4.34 10.02 -4 9 C-4.66 9 -5.32 9 -6 9 C-5.52797514 4.75177626 -3.03344482 2.80010291 0 0 Z " fill="#1A1B1D" transform="translate(63,114)"/>
<path d="M0 0 C1.67542976 0.28604898 3.34385343 0.61781233 5 1 C5.33 2.32 5.66 3.64 6 5 C3.03 7.475 3.03 7.475 0 10 C-0.66 9.34 -1.32 8.68 -2 8 C-1.01 7.01 -0.02 6.02 1 5 C0.34 3.68 -0.32 2.36 -1 1 C-0.67 0.67 -0.34 0.34 0 0 Z " fill="#191A1B" transform="translate(248,185)"/>
<path d="M0 0 C4.875 1.75 4.875 1.75 6 4 C3.36 5.98 0.72 7.96 -2 10 C-2.33 8.35 -2.66 6.7 -3 5 C-2.01 5 -1.02 5 0 5 C0 3.35 0 1.7 0 0 Z " fill="#131415" transform="translate(126,185)"/>
<path d="M0 0 C-1.48357222 4.10835383 -2.93321834 7.96660917 -7 10 C-7 7.36 -7 4.72 -7 2 C-2.25 0 -2.25 0 0 0 Z " fill="#111214" transform="translate(66,96)"/>
<path d="M0 0 C0.66 0.33 1.32 0.66 2 1 C0.47291037 4.43595166 -1.59927045 7.11912454 -4 10 C-4.99 9.67 -5.98 9.34 -7 9 C-5.44499019 5.18315774 -2.96404505 2.80804268 0 0 Z " fill="#0D0E0E" transform="translate(86,93)"/>
<path d="M0 0 C0.33 0.66 0.66 1.32 1 2 C1.99 2.33 2.98 2.66 4 3 C1.03 5.475 1.03 5.475 -2 8 C-2.66 7.67 -3.32 7.34 -4 7 C-4 6.01 -4 5.02 -4 4 C-4.66 3.34 -5.32 2.68 -6 2 C-3 1 -3 1 0 2 C0 1.34 0 0.68 0 0 Z " fill="#131416" transform="translate(314,18)"/>
<path d="M0 0 C0.99 0.33 1.98 0.66 3 1 C0.03 5.95 0.03 5.95 -3 11 C-3.66 10.67 -4.32 10.34 -5 10 C-4.45276317 6.62537285 -3.9451 4.91765 -2 2 C-1.34 2 -0.68 2 0 2 C0 1.34 0 0.68 0 0 Z " fill="#151618" transform="translate(55,111)"/>
<path d="M0 0 C1.33332095 2.6666419 0.67102033 4.16680303 0 7 C-0.66 7 -1.32 7 -2 7 C-2 7.66 -2 8.32 -2 9 C-1.34 9.33 -0.68 9.66 0 10 C-0.99 10.33 -1.98 10.66 -3 11 C-5 8 -5 8 -5 5 C-2.5 2.3125 -2.5 2.3125 0 0 Z M-5 11 C-4.01 11.495 -4.01 11.495 -3 12 C-3.99 12.495 -3.99 12.495 -5 13 C-5 12.34 -5 11.68 -5 11 Z " fill="#1C1D1F" transform="translate(55,232)"/>
<path d="M0 0 C1.36125 0.37125 1.36125 0.37125 2.75 0.75 C1.821875 1.1521875 1.821875 1.1521875 0.875 1.5625 C-1.5495233 2.70556848 -1.5495233 2.70556848 -3.25 5.75 C-6.375 6.9375 -6.375 6.9375 -9.25 7.75 C-7.2691238 3.12795552 -5.40714083 -0.41593391 0 0 Z " fill="#1C1D1E" transform="translate(78.25,214.25)"/>
<path d="M0 0 C0.99 0.33 1.98 0.66 3 1 C1.90536178 2.17561146 0.79892814 3.3402489 -0.3125 4.5 C-0.92738281 5.1496875 -1.54226562 5.799375 -2.17578125 6.46875 C-4 8 -4 8 -7 8 C-6.67 7.21625 -6.34 6.4325 -6 5.625 C-4.88133489 3.15667503 -4.88133489 3.15667503 -5 1 C-3.35 1.33 -1.7 1.66 0 2 C0 1.34 0 0.68 0 0 Z " fill="#1A1B1A" transform="translate(246,82)"/>
<path d="M0 0 C0 3.80672941 -0.75360239 4.91120329 -3 8 C-5.57673474 10.4445945 -8.25967673 12.74134875 -11 15 C-11 10.66825307 -8.34177417 8.77646347 -5.5 5.8125 C-4.97535156 5.25369141 -4.45070313 4.69488281 -3.91015625 4.11914062 C-2.61338387 2.73984636 -1.30753741 1.36909356 0 0 Z " fill="#CECFD1" transform="translate(29,252)"/>
<path d="M0 0 C0.66 0 1.32 0 2 0 C2.23053497 2.84326464 2.35903101 4.46145349 0.75 6.875 C-1 8 -1 8 -3.125 7.8125 C-5 7 -5 7 -6 5 C-5.34 5 -4.68 5 -4 5 C-3.67 4.34 -3.34 3.68 -3 3 C-2.34 3 -1.68 3 -1 3 C-0.67 2.01 -0.34 1.02 0 0 Z " fill="#18191B" transform="translate(83,226)"/>
<path d="M0 0 C-1.32 0.99 -2.64 1.98 -4 3 C-4.66 2.67 -5.32 2.34 -6 2 C-6 1.34 -6 0.68 -6 0 C-3 -1 -3 -1 0 0 Z M-12 0 C-9.525 0.495 -9.525 0.495 -7 1 C-7 1.99 -7 2.98 -7 4 C-7.99 4.33 -8.98 4.66 -10 5 C-12 1.125 -12 1.125 -12 0 Z " fill="#19191A" transform="translate(294,43)"/>
<path d="M0 0 C0.33 0.66 0.66 1.32 1 2 C1.66 2 2.32 2 3 2 C2 4 2 4 -0.4375 4.9375 C-3.29863959 5.84547289 -3.29863959 5.84547289 -5 9 C-5.99 8.67 -6.98 8.34 -8 8 C-5.36 5.36 -2.72 2.72 0 0 Z M-11 10 C-10.34 10.33 -9.68 10.66 -9 11 C-9.99 11 -10.98 11 -12 11 C-11.67 10.67 -11.34 10.34 -11 10 Z " fill="#E3E4E5" transform="translate(141,179)"/>
<path d="M0 0 C0.99 0 1.98 0 3 0 C2.40072174 3.35595828 1.15377564 5.37801226 -1 8 C-1 7.34 -1 6.68 -1 6 C-1.66 6 -2.32 6 -3 6 C-1.125 1.125 -1.125 1.125 0 0 Z M-5 7 C-5 10 -5 10 -5 10 Z " fill="#080808" transform="translate(195,123)"/>
<path d="M0 0 C0.66 0.33 1.32 0.66 2 1 C0.02 3.31 -1.96 5.62 -4 8 C-4.99 7.34 -5.98 6.68 -7 6 C-7 5.01 -7 4.02 -7 3 C-6.34 3 -5.68 3 -5 3 C-5 2.34 -5 1.68 -5 1 C-4.34 1.33 -3.68 1.66 -3 2 C-3.33 2.66 -3.66 3.32 -4 4 C-3.34 4 -2.68 4 -2 4 C-2 3.01 -2 2.02 -2 1 C-1.34 0.67 -0.68 0.34 0 0 Z " fill="#131416" transform="translate(25,254)"/>
<path d="M0 0 C0.66 0.99 1.32 1.98 2 3 C0.63016497 6.16115776 0.0109362 6.9927092 -3 9 C-3.66 8.01 -4.32 7.02 -5 6 C-3.35 4.02 -1.7 2.04 0 0 Z " fill="#131315" transform="translate(137,177)"/>
<path d="M0 0 C0 3 0 3 -2 6 C-2.66 6 -3.32 6 -4 6 C-4.33 6.66 -4.66 7.32 -5 8 C-6.64295195 9.36244796 -8.30824337 10.69864875 -10 12 C-10.66 11.67 -11.32 11.34 -12 11 C-8.04 7.37 -4.08 3.74 0 0 Z " fill="#E2E3E3" transform="translate(158,164)"/>
<path d="M0 0 C0.66 0.33 1.32 0.66 2 1 C0.84906278 4.45281166 -0.3205993 5.38082163 -3.0625 7.6875 C-3.79597656 8.31011719 -4.52945313 8.93273437 -5.28515625 9.57421875 C-5.85105469 10.04472656 -6.41695313 10.51523438 -7 11 C-7.66 10.67 -8.32 10.34 -9 10 C-6.03 6.7 -3.06 3.4 0 0 Z " fill="#E2E3E4" transform="translate(113,157)"/>
<path d="M0 0 C0.33 1.32 0.66 2.64 1 4 C0.360625 4.28875 -0.27875 4.5775 -0.9375 4.875 C-3.15206079 5.82823451 -3.15206079 5.82823451 -4 8 C-6.4375 9.6875 -6.4375 9.6875 -9 11 C-9.66 10.67 -10.32 10.34 -11 10 C-5.555 5.05 -5.555 5.05 0 0 Z " fill="#E8E8E8" transform="translate(208,119)"/>
<path d="M0 0 C1 3 1 3 1 6 C-2.13349732 7.04449911 -2.98968256 6.93423645 -6 6 C-4.95125002 3.37812506 -4.35068687 2.20628639 -1.875 0.75 C-1.25625 0.5025 -0.6375 0.255 0 0 Z " fill="#252628" transform="translate(20,264)"/>
<path d="M0 0 C0.66 0.33 1.32 0.66 2 1 C4.09821215 0.60061233 4.09821215 0.60061233 6 0 C5.67 1.32 5.34 2.64 5 4 C1.25 5.125 1.25 5.125 -1 4 C-1 1 -1 1 0 0 Z " fill="#E0E1E3" transform="translate(42,237)"/>
<path d="M0 0 C-0.66 1.98 -1.32 3.96 -2 6 C-3.32 5.34 -4.64 4.68 -6 4 C-6 3.01 -6 2.02 -6 1 C-3.92446352 0.4465236 -2.15634036 0 0 0 Z " fill="#141516" transform="translate(70,223)"/>
<path d="M0 0 C0.99 0.33 1.98 0.66 3 1 C2.34 2.32 1.68 3.64 1 5 C-0.66666667 5 -2.33333333 5 -4 5 C-2.25 1.125 -2.25 1.125 0 0 Z " fill="#151515" transform="translate(99,168)"/>
<path d="M0 0 C2 1 2 1 2 1 Z M-2 1 C0.475 1.99 0.475 1.99 3 3 C2.01 3.495 2.01 3.495 1 4 C0.67 4.99 0.34 5.98 0 7 C-0.33 6.01 -0.66 5.02 -1 4 C-2.65 4.66 -4.3 5.32 -6 6 C-4.68 4.35 -3.36 2.7 -2 1 Z " fill="#1C1C1E" transform="translate(76,103)"/>
<path d="M0 0 C1.32 1.32 2.64 2.64 4 4 C3.01 5.32 2.02 6.64 1 8 C0.34 7.67 -0.32 7.34 -1 7 C-0.67 6.67 -0.34 6.34 0 6 C-0.99 5.34 -1.98 4.68 -3 4 C-2.01 2.68 -1.02 1.36 0 0 Z " fill="#1D1D1E" transform="translate(160,199)"/>
<path d="M0 0 C1.32 0.66 2.64 1.32 4 2 C3.67 2.99 3.34 3.98 3 5 C0.33333333 5 -2.33333333 5 -5 5 C-3.35 3.35 -1.7 1.7 0 0 Z " fill="#1E1E1E" transform="translate(114,179)"/>
<path d="M0 0 C1 2 1 2 0.0625 5.125 C-0.288125 6.07375 -0.63875 7.0225 -1 8 C-2.65 8 -4.3 8 -6 8 C-2.25 2.25 -2.25 2.25 0 0 Z " fill="#242424" transform="translate(202,152)"/>
<path d="M0 0 C2 3.75 2 3.75 2 6 C0.02 6.33 -1.96 6.66 -4 7 C-4 4 -4 4 -2 1.8125 C-1.34 1.214375 -0.68 0.61625 0 0 Z " fill="#181818" transform="translate(99,81)"/>
<path d="M0 0 C0.33 0.66 0.66 1.32 1 2 C1.66 2 2.32 2 3 2 C3.33 1.34 3.66 0.68 4 0 C4.33 0.66 4.66 1.32 5 2 C3.6875 4.625 3.6875 4.625 2 7 C1.34 7 0.68 7 0 7 C-1.125 2.25 -1.125 2.25 0 0 Z " fill="#111214" transform="translate(74,73)"/>
<path d="M0 0 C0.99 0 1.98 0 3 0 C1.60667426 3.36720387 0.0210714 4.9859524 -3 7 C-3 5.68 -3 4.36 -3 3 C-2.01 2.67 -1.02 2.34 0 2 C0 1.34 0 0.68 0 0 Z " fill="#191919" transform="translate(84,186)"/>
<path d="M0 0 C0.66 0.33 1.32 0.66 2 1 C1.01 1.33 0.02 1.66 -1 2 C-0.67 2.99 -0.34 3.98 0 5 C-1.32 5.99 -2.64 6.98 -4 8 C-4.66 6.68 -5.32 5.36 -6 4 C-4.68 3.67 -3.36 3.34 -2 3 C-2 2.34 -2 1.68 -2 1 C-1.34 0.67 -0.68 0.34 0 0 Z " fill="#141616" transform="translate(268,172)"/>
<path d="M0 0 C0.99 0 1.98 0 3 0 C1.50902342 3.7952131 -0.75700849 5.61042731 -4 8 C-2.25 2.25 -2.25 2.25 0 0 Z " fill="#D7D8D9" transform="translate(53,120)"/>
<path d="M0 0 C0.66 0.33 1.32 0.66 2 1 C1.6875 2.875 1.6875 2.875 1 5 C0.01 5.66 -0.98 6.32 -2 7 C-2 6.34 -2 5.68 -2 5 C-2.66 4.67 -3.32 4.34 -4 4 C-2.68 2.68 -1.36 1.36 0 0 Z " fill="#18191B" transform="translate(234,91)"/>
<path d="M0 0 C0.99 0.33 1.98 0.66 3 1 C2.6875 2.9375 2.6875 2.9375 2 5 C1.01 5.33 0.02 5.66 -1 6 C-1 5.34 -1 4.68 -1 4 C-1.66 3.67 -2.32 3.34 -3 3 C-2.01 2.01 -1.02 1.02 0 0 Z " fill="#F7F7F7" transform="translate(294,42)"/>
<path d="M0 0 C0 3 0 3 -1.53125 4.82421875 C-2.1809375 5.43910156 -2.830625 6.05398437 -3.5 6.6875 C-4.1496875 7.31011719 -4.799375 7.93273437 -5.46875 8.57421875 C-5.9740625 9.04472656 -6.479375 9.51523437 -7 10 C-7.99 9.67 -8.98 9.34 -10 9 C-6.7 6.03 -3.4 3.06 0 0 Z " fill="#B2B3B5" transform="translate(319,19)"/>
<path d="M0 0 C0.66 1.32 1.32 2.64 2 4 C0.71937515 5.7074998 -0.61767557 7.37373596 -2 9 C-2.66 9 -3.32 9 -4 9 C-2.80100302 5.9168649 -1.52299523 2.93720508 0 0 Z " fill="#19191A" transform="translate(256,212)"/>
<path d="M0 0 C0.33 0.66 0.66 1.32 1 2 C1.99 2 2.98 2 4 2 C4 3.32 4 4.64 4 6 C2.02 6.33 0.04 6.66 -2 7 C-1.34 4.69 -0.68 2.38 0 0 Z " fill="#070709" transform="translate(90,216)"/>
<path d="M0 0 C-0.8125 2.9375 -0.8125 2.9375 -2 6 C-2.99 6.33 -3.98 6.66 -5 7 C-5.66 6.34 -6.32 5.68 -7 5 C-2.25 0 -2.25 0 0 0 Z " fill="#1A1B1C" transform="translate(85,207)"/>
<path d="M0 0 C0.33 0.66 0.66 1.32 1 2 C0.22265625 3.7265625 0.22265625 3.7265625 -0.9375 5.625 C-1.618125 6.73875 -2.29875 7.8525 -3 9 C-3.99 8.01 -4.98 7.02 -6 6 C-4.02 4.02 -2.04 2.04 0 0 Z " fill="#DADBDC" transform="translate(285,160)"/>
<path d="M0 0 C0.66 0 1.32 0 2 0 C2.33 0.99 2.66 1.98 3 3 C1.35 4.32 -0.3 5.64 -2 7 C-2 3 -2 3 0 0 Z " fill="#212223" transform="translate(192,129)"/>
<path d="M0 0 C0.66 0.33 1.32 0.66 2 1 C0.63016497 4.16115776 0.0109362 4.9927092 -3 7 C-3.66 6.34 -4.32 5.68 -5 5 C-3.35 3.35 -1.7 1.7 0 0 Z " fill="#181818" transform="translate(252,96)"/>
<path d="M0 0 C0.66 0 1.32 0 2 0 C2.33 0.99 2.66 1.98 3 3 C1.5625 5.6875 1.5625 5.6875 0 8 C-0.33 7.34 -0.66 6.68 -1 6 C-1.66 5.67 -2.32 5.34 -3 5 C-2.505 4.360625 -2.01 3.72125 -1.5 3.0625 C0.09802862 1.29025661 0.09802862 1.29025661 0 0 Z " fill="#191919" transform="translate(67,88)"/>
<path d="M0 0 C0.99 0.33 1.98 0.66 3 1 C1.75023244 4.65316671 1.32901247 5.78065836 -2 8 C-1.125 2.25 -1.125 2.25 0 0 Z " fill="#151517" transform="translate(47,226)"/>
<path d="M0 0 C3.71599191 -0.20086443 4.77208445 -0.1519437 8 2 C7.01 2.99 6.02 3.98 5 5 C2 4 2 4 0.8125 1.9375 C0.544375 1.298125 0.27625 0.65875 0 0 Z " fill="#070707" transform="translate(144,168)"/>
<path d="M0 0 C0.99 0.99 1.98 1.98 3 3 C1.35 4.32 -0.3 5.64 -2 7 C-2.33 5.68 -2.66 4.36 -3 3 C-2.34 3 -1.68 3 -1 3 C-0.67 2.01 -0.34 1.02 0 0 Z " fill="#171719" transform="translate(278,162)"/>
<path d="M0 0 C0.66 0.33 1.32 0.66 2 1 C1.67 2.65 1.34 4.3 1 6 C0.01 6 -0.98 6 -2 6 C-2.33 5.01 -2.66 4.02 -3 3 C-2.01 2.67 -1.02 2.34 0 2 C0 1.34 0 0.68 0 0 Z " fill="#161618" transform="translate(108,157)"/>
<path d="M0 0 C1.0625 1.8125 1.0625 1.8125 2 4 C1.67 4.99 1.34 5.98 1 7 C-1.475 6.01 -1.475 6.01 -4 5 C-2.68 3.35 -1.36 1.7 0 0 Z " fill="#1D1E1E" transform="translate(144,152)"/>
<path d="M0 0 C0.99 0.33 1.98 0.66 3 1 C2.6875 2.875 2.6875 2.875 2 5 C1.01 5.66 0.02 6.32 -1 7 C-1.04254356 5.00045254 -1.04080783 2.99958364 -1 1 C-0.67 0.67 -0.34 0.34 0 0 Z " fill="#18191B" transform="translate(123,140)"/>
<path d="M0 0 C0.33 0.66 0.66 1.32 1 2 C-0.65 3.65 -2.3 5.3 -4 7 C-4.66 6.34 -5.32 5.68 -6 5 C-5.67 4.01 -5.34 3.02 -5 2 C-5 2.66 -5 3.32 -5 4 C-4.34 4 -3.68 4 -3 4 C-3 3.34 -3 2.68 -3 2 C-2.01 1.34 -1.02 0.68 0 0 Z " fill="#1A1B1D" transform="translate(142,122)"/>
<path d="M0 0 C3 1 3 1 5 4 C1.70897992 4.90786761 -0.81119049 5.59440475 -4 4 C-2.68 2.68 -1.36 1.36 0 0 Z " fill="#1E1E1E" transform="translate(204,98)"/>
<path d="M0 0 C0.33 0.66 0.66 1.32 1 2 C0.0625 4.625 0.0625 4.625 -1 7 C-1.99 7 -2.98 7 -4 7 C-3.43628586 3.73045798 -2.50037734 2.17424117 0 0 Z " fill="#E8E8E9" transform="translate(146,120)"/>
<path d="M0 0 C0.66 0.66 1.32 1.32 2 2 C1.8125 4 1.8125 4 1 6 C0.01 6.66 -0.98 7.32 -2 8 C-2.33 7.01 -2.66 6.02 -3 5 C-2.34 5 -1.68 5 -1 5 C-0.67 3.35 -0.34 1.7 0 0 Z " fill="#1A1A1A" transform="translate(170,87)"/>
<path d="M0 0 C0.99 0 1.98 0 3 0 C1.70700306 2.88437779 0.34058637 4.87219421 -2 7 C-2.66 6.67 -3.32 6.34 -4 6 C-2.1875 3 -2.1875 3 0 0 Z " fill="#F0F1F3" transform="translate(31,250)"/>
<path d="M0 0 C0.598125 0.20625 1.19625 0.4125 1.8125 0.625 C0.4925 1.945 -0.8275 3.265 -2.1875 4.625 C-3.1775 3.635 -4.1675 2.645 -5.1875 1.625 C-2.1875 -0.375 -2.1875 -0.375 0 0 Z " fill="#18181A" transform="translate(76.1875,235.375)"/>
<path d="M0 0 C2 1 2 1 2 1 Z M-2 1 C-1.34 1.33 -0.68 1.66 0 2 C-2.3125 4.5 -2.3125 4.5 -5 7 C-5.99 7 -6.98 7 -8 7 C-6.02 5.02 -4.04 3.04 -2 1 Z " fill="#E9E9EA" transform="translate(102,215)"/>
<path d="M0 0 C0.99 0.33 1.98 0.66 3 1 C1.35 2.65 -0.3 4.3 -2 6 C-2 2 -2 2 0 0 Z " fill="#232325" transform="translate(103,210)"/>
<path d="M0 0 C2.125 0.9375 2.125 0.9375 4 2 C3.01 2.99 2.02 3.98 1 5 C0.01 4.67 -0.98 4.34 -2 4 C-2 3.01 -2 2.02 -2 1 C-1.34 0.67 -0.68 0.34 0 0 Z " fill="#17181A" transform="translate(120,193)"/>
<path d="M0 0 C0.99 0.33 1.98 0.66 3 1 C2.34 1 1.68 1 1 1 C0.773125 1.61875 0.54625 2.2375 0.3125 2.875 C-1.37929835 5.61410209 -2.99244161 6.05024472 -6 7 C-4.02 4.69 -2.04 2.38 0 0 Z " fill="#E7E7E8" transform="translate(94,179)"/>
<path d="M0 0 C0.99 0.33 1.98 0.66 3 1 C2.34 2.32 1.68 3.64 1 5 C-0.65 5 -2.3 5 -4 5 C-2.68 3.35 -1.36 1.7 0 0 Z " fill="#1E1E1E" transform="translate(124,170)"/>
<path d="M0 0 C0.99 0 1.98 0 3 0 C2.625 2.4375 2.625 2.4375 2 5 C1.01 5.495 1.01 5.495 0 6 C0 5.34 0 4.68 0 4 C-0.66 4 -1.32 4 -2 4 C-2 3.34 -2 2.68 -2 2 C-1.34 2 -0.68 2 0 2 C0 1.34 0 0.68 0 0 Z " fill="#1D1E20" transform="translate(132,130)"/>
<path d="M0 0 C1.32 0.33 2.64 0.66 4 1 C-0.75 5.875 -0.75 5.875 -3 7 C-1.125 2.25 -1.125 2.25 0 0 Z " fill="#151515" transform="translate(198,124)"/>
<path d="M0 0 C0.66 0.33 1.32 0.66 2 1 C2.99 0.67 3.98 0.34 5 0 C4.67 1.65 4.34 3.3 4 5 C1 5 1 5 -1 4 C-0.67 2.68 -0.34 1.36 0 0 Z " fill="#161617" transform="translate(80,62)"/>
<path d="M0 0 C1.0625 1.875 1.0625 1.875 2 4 C1.67 4.66 1.34 5.32 1 6 C-1.0625 6.625 -1.0625 6.625 -3 7 C-1.125 2.25 -1.125 2.25 0 0 Z " fill="#212121" transform="translate(251,221)"/>
<path d="M0 0 C-0.3125 1.875 -0.3125 1.875 -1 4 C-1.99 4.66 -2.98 5.32 -4 6 C-4.33 5.34 -4.66 4.68 -5 4 C-4.67 3.01 -4.34 2.02 -4 1 C-2 0 -2 0 0 0 Z " fill="#1D1D1F" transform="translate(175,147)"/>
<path d="M0 0 C0.598125 0.350625 1.19625 0.70125 1.8125 1.0625 C-0.4975 1.7225 -2.8075 2.3825 -5.1875 3.0625 C-5.1875 2.0725 -5.1875 1.0825 -5.1875 0.0625 C-2.1875 -0.9375 -2.1875 -0.9375 0 0 Z " fill="#1B1B1B" transform="translate(181.1875,141.9375)"/>
<path d="M0 0 C0.99 0.66 1.98 1.32 3 2 C2.67 3.32 2.34 4.64 2 6 C0.68 5.34 -0.64 4.68 -2 4 C-1.34 2.68 -0.68 1.36 0 0 Z " fill="#E6E7E9" transform="translate(55,115)"/>
<path d="M0 0 C0.66 0.33 1.32 0.66 2 1 C0.25 4.875 0.25 4.875 -2 6 C-2.66 5.34 -3.32 4.68 -4 4 C-2.68 2.68 -1.36 1.36 0 0 Z " fill="#1E201F" transform="translate(86,93)"/>
<path d="M0 0 C1 3 1 3 0.0625 5.1875 C-0.4634375 6.0846875 -0.4634375 6.0846875 -1 7 C-1.33 6.34 -1.66 5.68 -2 5 C-2.66 4.67 -3.32 4.34 -4 4 C-2.68 2.68 -1.36 1.36 0 0 Z " fill="#242424" transform="translate(280,64)"/>
</svg>
